<?xml version="1.0" encoding="UTF-8"?>
<svg width="128px" height="24px" viewBox="0 0 128 24" version="1.1" xmlns="http://www.w3.org/2000/svg" xmlns:xlink="http://www.w3.org/1999/xlink">
    <!-- Generator: Sketch 64 (93537) - https://sketch.com -->
    <title>Group Copy</title>
    <desc>Created with Sketch.</desc>
    <g id="Logo" stroke="none" stroke-width="1" fill="none" fill-rule="evenodd">
        <g id="Group-Copy" transform="translate(0.000000, 4.000000)" fill="#000000">
            <path d="M58.1908738,16.211137 L58.1908738,10.981738 L60.6038233,10.981738 C62.3649991,10.981738 63.7136161,10.5215508 64.6496741,9.60117661 C65.5857321,8.68080239 66.0537611,7.38391143 66.0537611,5.71050374 C66.0537611,4.03709605 65.5857321,2.74020509 64.6496741,1.81983086 C63.7136161,0.899456633 62.3649991,0.439269518 60.6038233,0.439269518 L60.6038233,0.439269518 L54.1138211,0.439269518 L54.1138211,16.211137 L58.1908738,16.211137 Z M59.5429576,7.67675777 L58.1908738,7.67675777 L58.1908738,3.7442497 L59.5429576,3.7442497 C61.0406504,3.7442497 61.7894968,4.39966772 61.7894968,5.71050374 C61.7894968,7.02133976 61.0406504,7.67675777 59.5429576,7.67675777 L59.5429576,7.67675777 Z M69.6939867,16.211137 L69.6939867,10.1450341 L73.5838277,16.211137 L78.6593423,16.211137 L73.7294368,9.74759979 C74.8527064,9.48264357 75.7020923,8.977135 76.2775947,8.23107407 C76.853097,7.48501314 77.1408482,6.51234492 77.1408482,5.31306941 C77.1408482,4.64370634 77.0333748,4.01617845 76.8184282,3.43048576 C76.6034815,2.84479307 76.2845284,2.3288257 75.8615689,1.88258365 C75.4386093,1.4363416 74.9012427,1.08422873 74.249469,0.826245046 C73.5976953,0.568261361 72.8349813,0.439269518 71.9613272,0.439269518 L71.9613272,0.439269518 L65.616934,0.439269518 L65.616934,16.211137 L69.6939867,16.211137 Z M70.4636344,7.48849941 L69.6939867,7.48849941 L69.6939867,3.59782653 L70.4636344,3.59782653 C71.2679509,3.59782653 71.8850558,3.7651673 72.3149491,4.09984884 C72.7448424,4.43453038 72.9597891,4.91563509 72.9597891,5.54316297 C72.9597891,6.17069085 72.7448424,6.65179556 72.3149491,6.9864771 C71.8850558,7.32115864 71.2679509,7.48849941 70.4636344,7.48849941 L70.4636344,7.48849941 Z M85.4405625,16.6504065 C86.7025074,16.6504065 87.8673796,16.4377443 88.9351791,16.0124198 C90.0029786,15.5870954 90.9217022,14.9979164 91.6913499,14.244883 C92.4609976,13.4918495 93.0607681,12.6098242 93.4906614,11.598807 C93.9205547,10.5877899 94.1355014,9.49658863 94.1355014,8.32520325 C94.1355014,7.15381787 93.9205547,6.06261661 93.4906614,5.05159946 C93.0607681,4.04058232 92.4609976,3.15855701 91.6913499,2.40552355 C90.9217022,1.65249009 90.0029786,1.06331114 88.9351791,0.637986681 C87.8673796,0.212662227 86.7025074,0 85.4405625,0 C84.1647501,0 82.996411,0.212662227 81.9355453,0.637986681 C80.8746796,1.06331114 79.9628897,1.65249009 79.2001758,2.40552355 C78.4374619,3.15855701 77.8411582,4.04058232 77.4112649,5.05159946 C76.9813716,6.06261661 76.766425,7.15381787 76.766425,8.32520325 C76.766425,9.49658863 76.9813716,10.5877899 77.4112649,11.598807 C77.8411582,12.6098242 78.4374619,13.4918495 79.2001758,14.244883 C79.9628897,14.9979164 80.8746796,15.5870954 81.9355453,16.0124198 C82.996411,16.4377443 84.1647501,16.6504065 85.4405625,16.6504065 Z M85.4405625,12.6760632 C84.8442589,12.6760632 84.2791572,12.567989 83.7452575,12.3518405 C83.2113577,12.135692 82.7433287,11.8323869 82.3411704,11.4419251 C81.9390122,11.0514633 81.6200591,10.5912762 81.3843111,10.0613637 C81.1485632,9.53145129 81.0306892,8.95273114 81.0306892,8.32520325 C81.0306892,7.69767537 81.1485632,7.11895521 81.3843111,6.58904277 C81.6200591,6.05913034 81.9390122,5.59894323 82.3411704,5.20848143 C82.7433287,4.81801964 83.2113577,4.51471449 83.7452575,4.298566 C84.2791572,4.08241751 84.8442589,3.97434326 85.4405625,3.97434326 C86.0368661,3.97434326 86.6019678,4.08241751 87.1358676,4.298566 C87.6697673,4.51471449 88.1412632,4.81801964 88.5503552,5.20848143 C88.9594473,5.59894323 89.2818672,6.05913034 89.5176152,6.58904277 C89.7533631,7.11895521 89.8712371,7.69767537 89.8712371,8.32520325 C89.8712371,8.95273114 89.7533631,9.53145129 89.5176152,10.0613637 C89.2818672,10.5912762 88.9594473,11.0514633 88.5503552,11.4419251 C88.1412632,11.8323869 87.6697673,12.135692 87.1358676,12.3518405 C86.6019678,12.567989 86.0368661,12.6760632 85.4405625,12.6760632 Z M98.1917527,16.211137 L98.1917527,10.981738 L100.604702,10.981738 C102.365878,10.981738 103.714495,10.5215508 104.650553,9.60117661 C105.586611,8.68080239 106.05464,7.38391143 106.05464,5.71050374 C106.05464,4.03709605 105.586611,2.74020509 104.650553,1.81983086 C103.714495,0.899456633 102.365878,0.439269518 100.604702,0.439269518 L100.604702,0.439269518 L94.1147001,0.439269518 L94.1147001,16.211137 L98.1917527,16.211137 Z M99.5438365,7.67675777 L98.1917527,7.67675777 L98.1917527,3.7442497 L99.5438365,3.7442497 C101.041529,3.7442497 101.790376,4.39966772 101.790376,5.71050374 C101.790376,7.02133976 101.041529,7.67675777 99.5438365,7.67675777 L99.5438365,7.67675777 Z M109.694866,16.211137 L109.694866,10.981738 L112.107815,10.981738 C113.868991,10.981738 115.217608,10.5215508 116.153666,9.60117661 C117.089724,8.68080239 117.557753,7.38391143 117.557753,5.71050374 C117.557753,4.03709605 117.089724,2.74020509 116.153666,1.81983086 C115.217608,0.899456633 113.868991,0.439269518 112.107815,0.439269518 L112.107815,0.439269518 L105.617813,0.439269518 L105.617813,16.211137 L109.694866,16.211137 Z M111.046949,7.67675777 L109.694866,7.67675777 L109.694866,3.7442497 L111.046949,3.7442497 C112.544642,3.7442497 113.293489,4.39966772 113.293489,5.71050374 C113.293489,7.02133976 112.544642,7.67675777 111.046949,7.67675777 L111.046949,7.67675777 Z M121.926024,16.6504065 C122.882883,16.6504065 123.739203,16.5214147 124.494983,16.263431 C125.250763,16.0054473 125.888669,15.6428756 126.408701,15.175716 C126.928734,14.7085563 127.323958,14.1472675 127.594375,13.4918495 C127.864792,12.8364315 128,12.1043156 128,11.2955019 C128,10.0962264 127.691448,9.12355817 127.074343,8.37749724 C126.457238,7.63143631 125.483044,7.03528483 124.151762,6.58904277 C123.818941,6.47748226 123.482653,6.37289428 123.142899,6.27527883 C122.803145,6.17766338 122.498059,6.06261661 122.227642,5.9301385 C121.957226,5.79766039 121.738812,5.64077842 121.572402,5.45949258 C121.405991,5.27820675 121.322786,5.04811319 121.322786,4.76921191 C121.322786,4.36480506 121.489197,4.03709605 121.822017,3.7860849 C122.154838,3.53507374 122.584731,3.40956817 123.111697,3.40956817 C123.527723,3.40956817 123.957616,3.49672482 124.401377,3.67103812 C124.845138,3.84535142 125.288899,4.1137939 125.732659,4.47636557 L125.732659,4.47636557 L127.35516,1.27597336 C126.578579,0.857621441 125.767328,0.540371233 124.921409,0.32422274 C124.07549,0.108074247 123.26424,0 122.487658,0 C121.655607,0 120.903294,0.125505577 120.230719,0.37651673 C119.558144,0.627527883 118.989575,0.979640751 118.525013,1.43285533 C118.060451,1.88606992 117.699895,2.42992741 117.443346,3.06442783 C117.186797,3.69892825 117.058522,4.40664025 117.058522,5.18756384 C117.058522,5.96848742 117.179863,6.61344664 117.422544,7.12244148 C117.665226,7.63143631 117.984179,8.0532745 118.379404,8.38795604 C118.774628,8.72263758 119.225323,8.99108006 119.731488,9.19328349 C120.237652,9.39548692 120.754218,9.58025902 121.281184,9.74759979 C121.724944,9.90099549 122.102835,10.0404461 122.414854,10.1659517 C122.726873,10.2914573 122.979956,10.4274217 123.174101,10.5738448 C123.368246,10.720268 123.506922,10.8806362 123.590127,11.0549495 C123.673332,11.2292628 123.714934,11.4349525 123.714934,11.6720186 C123.714934,12.0624804 123.551991,12.411107 123.226104,12.7178984 C122.900217,13.0246898 122.404453,13.1780855 121.738812,13.1780855 C121.156376,13.1780855 120.567006,13.0456074 119.970702,12.7806512 C119.374399,12.515695 118.771161,12.1112881 118.16099,11.5674306 L118.16099,11.5674306 L116.413682,14.8724108 C118.10552,16.0577413 119.942967,16.6504065 121.926024,16.6504065 Z" id="PROPPS" fill-rule="nonzero"></path>
            <polygon id="Path-Copy" opacity="0.900000036" points="41.6260163 11.0011614 32.7061556 2.08130081 26.7595819 8.02787456 20.8130081 2.08130081 14.8664344 8.02787456 8.91986063 2.08130081 0 11.0011614 2.97328688 13.9744483 8.91986063 8.02787456 14.8664344 13.9744483 20.8130081 8.02787456 26.7595819 13.9744483 32.7061556 8.02787456 38.6527294 13.9744483"></polygon>
        </g>
    </g>
</svg>