<svg width="48px" height="32px" viewBox="0 0 48 32">
    <g id="Offers-/-Buyer" stroke="none" stroke-width="1" fill="none" fill-rule="evenodd">
        <g id="Auction/Desktop" transform="translate(-1182.000000, -1372.000000)" fill="#B42B4F">
            <path d="M1226,1372 C1228.20914,1372 1230,1373.79086 1230,1376 L1230,1400 C1230,1402.20914 1228.20914,1404 1226,1404 L1200.31371,1404 C1198.19198,1404 1196.15715,1403.15715 1194.65685,1401.65685 L1183.82843,1390.82843 C1182.26633,1389.26633 1182.26633,1386.73367 1183.82843,1385.17157 L1194.65685,1374.34315 C1196.15715,1372.84285 1198.19198,1372 1200.31371,1372 L1226,1372 Z M1217.8033,1383.13604 L1214,1386.93934 L1210.1967,1383.13604 L1209.13604,1384.1967 L1212.93934,1388 L1209.13604,1391.8033 L1210.1967,1392.86396 L1214,1389.06066 L1217.8033,1392.86396 L1218.86396,1391.8033 L1215.06066,1388 L1218.86396,1384.1967 L1217.8033,1383.13604 Z" id="Shape"></path>
        </g>
    </g>
</svg>