<?xml version="1.0" encoding="UTF-8"?>
<svg width="32px" height="32px" viewBox="0 0 32 32" version="1.1" xmlns="http://www.w3.org/2000/svg" xmlns:xlink="http://www.w3.org/1999/xlink">
    <!-- Generator: Sketch 64 (93537) - https://sketch.com -->
    <title>icons/flags/australia</title>
    <desc>Created with Sketch.</desc>
    <g id="icons/flags/australia" stroke="none" stroke-width="1" fill="none" fill-rule="evenodd">
        <g id="australia" transform="translate(2.000000, 6.000000)" fill-rule="nonzero">
            <g id="Group" transform="translate(13.986355, 10.131579) scale(-1, 1) rotate(-180.000000) translate(-13.986355, -10.131579) ">
                <g id="Shape">
                    <path d="M24.8403801,20.2024366 L3.10531189,20.2024366 C1.3905848,20.2024366 0.000272904483,18.8121248 0.000272904483,17.0973977 L0.000272904483,3.12482456 C0.000272904483,1.41009747 1.3905848,0.019785575 3.10531189,0.019785575 L24.8403801,0.019785575 C26.5551072,0.019785575 27.9454191,1.41009747 27.9454191,3.12482456 L27.9454191,17.0973977 C27.9454191,18.812193 26.5551754,20.2024366 24.8403801,20.2024366 Z" fill="#00247D"></path>
                    <g transform="translate(0.000000, 10.097466)">
                        <g>
                            <g>
                                <polygon fill="#EEEEEE" points="14.7490546 0.0136452242 14.7490546 1.58864522 9.23768031 5.44744639 5.1787037 5.44744639 12.9388791 0.0136452242"></polygon>
                                <polygon fill="#CF1B2B" points="14.7490546 1.11440546 8.56155945 5.44744639 7.20856725 5.44744639 14.7490546 0.167358674"></polygon>
                                <polygon fill="#EEEEEE" points="6.28765107 5.44744639 0 0.971608187 0 0.0137134503 2.58645224 0.0137134503 10.3474464 5.44751462"></polygon>
                                <polygon fill="#CF1B2B" points="8.31703704 5.44744639 0.57002924 0.0136452242 0.776481481 0.0136452242 1.91060429 0.0136452242 9.67077973 5.44744639"></polygon>
                                <polygon fill="#EEEEEE" points="12.9396296 10.1049708 5.17945419 4.67116959 9.2384308 4.67116959 14.7490546 8.52997076 14.7490546 10.1049708"></polygon>
                                <polygon fill="#CF1B2B" points="13.6150682 10.1049708 5.85564327 4.67116959 7.20863548 4.67116959 14.7491228 9.95125731 14.7491228 10.1049708"></polygon>
                            </g>
                            <path d="M0.514766082,8.71124756 L7.76276803,3.63795322 L7.76276803,4.67116959 L10.3461501,4.67116959 L2.6370078,10.0697661 C1.75136452,9.93576998 0.988869396,9.42734893 0.514766082,8.71124756 Z" fill="#EEEEEE"></path>
                            <path d="M0.752397661,9.02467836 L7.76283626,4.11076023 L7.76283626,4.67116959 L8.31703704,4.67116959 L1.34207602,9.5552729 C1.12347953,9.40408382 0.925419103,9.22553606 0.752397661,9.02467836 Z" fill="#CF1B2B"></path>
                        </g>
                        <g>
                            <polygon fill="#EEEEEE" points="14.7490546 6.99993177 9.31525341 6.99993177 9.31525341 10.1049708 5.43407407 10.1049708 5.43407407 6.99993177 0.000272904483 6.99993177 0.000272904483 3.11868421 5.43407407 3.11868421 5.43407407 0.0136452242 9.31532164 0.0136452242 9.31532164 3.11868421 14.7491228 3.11868421 14.7491228 6.99993177"></polygon>
                            <g fill="#CF1B2B">
                                <polygon points="8.53904483 0.0136452242 6.21028265 0.0136452242 6.21028265 10.1049708 8.53904483 10.1049708 8.53904483 0.0136452242"></polygon>
                                <polygon points="14.7490546 3.89496101 0.000272904483 3.89496101 0.000272904483 6.2237232 14.7490546 6.2237232"></polygon>
                            </g>
                        </g>
                    </g>
                </g>
                <g transform="translate(4.844055, 2.115010)" fill="#FFFFFF" id="Shape">
                    <polygon points="2.14291423 1.76794347 1.19436647 0.891578947 1.28831384 2.18016569 0.0105750487 2.37501949 1.07640351 3.10551657 0.433645224 4.22483431 1.66867446 3.84679337 2.14298246 5.04921053 2.61729045 3.84679337 3.85307018 4.22483431 3.20881092 3.10551657 4.27538986 2.37501949 2.99765107 2.18016569 3.09234893 0.891578947"></polygon>
                    <polygon points="16.8526706 14.5461501 16.2324951 13.9732554 16.2937622 14.8162573 15.4577193 14.9435673 16.1555361 15.4209454 15.7347856 16.153694 16.5421053 15.9061014 16.8526023 16.6924756 17.1630994 15.9061014 17.9711696 16.153694 17.5496686 15.4209454 18.2474854 14.9435673 17.412193 14.8162573 17.47346 13.9732554"></polygon>
                    <polygon points="13.7476316 9.8882846 13.1274561 9.31538986 13.1887232 10.1583918 12.3526803 10.2857018 13.0504971 10.7630799 12.6297466 11.4958285 13.4370663 11.2482359 13.7475634 12.0353606 14.0580604 11.2482359 14.8661306 11.4958285 14.4446296 10.7630799 15.1424464 10.2857018 14.307154 10.1583918 14.3684211 9.31538986"></polygon>
                    <polygon points="20.7339181 11.44077 20.1137427 10.8678752 20.1750097 11.7108772 19.3389669 11.8381871 20.0367836 12.3155653 19.6160331 13.0483138 20.4233528 12.8007212 20.7338499 13.587846 21.044347 12.8007212 21.8524172 13.0483138 21.4309162 12.3155653 22.1287329 11.8381871 21.2934405 11.7108772 21.3547076 10.8678752"></polygon>
                    <polygon points="16.8526706 0.573235867 16.2324951 0.000341130604 16.2937622 0.84334308 15.4577193 0.970653021 16.1555361 1.44803119 15.7347856 2.18077973 16.5421053 1.93318713 16.8526023 2.72031189 17.1630994 1.93318713 17.9711696 2.18077973 17.5496686 1.44803119 18.2474854 0.970653021 17.412193 0.84334308 17.47346 0.000341130604"></polygon>
                    <polygon points="19.2200487 9.54865497 19.4482651 9.08601365 19.9582554 9.01226121 19.5895614 8.652846 19.6764815 8.14442495 19.2200487 8.38423977 18.763616 8.14442495 18.8505361 8.652846 18.4818421 9.01226121 18.9918324 9.08601365"></polygon>
                </g>
            </g>
        </g>
    </g>
</svg>