<?xml version="1.0" encoding="UTF-8"?>
<svg width="32px" height="32px" viewBox="0 0 32 32" version="1.1" xmlns="http://www.w3.org/2000/svg" xmlns:xlink="http://www.w3.org/1999/xlink">
    <!-- Generator: Sketch 64 (93537) - https://sketch.com -->
    <title>icons/flags/uk</title>
    <desc>Created with Sketch.</desc>
    <g id="icons/flags/uk" stroke="none" stroke-width="1" fill="none" fill-rule="evenodd">
        <g id="united-kingdom" transform="translate(2.000000, 6.000000)" fill-rule="nonzero">
            <g id="Group" transform="translate(13.986355, 10.131579) scale(-1, 1) rotate(-180.000000) translate(-13.986355, -10.131579) ">
                <g fill="#00247D" id="Shape">
                    <polygon points="0 13.9924269 4.36879142 13.9924269 0 17.0508674"></polygon>
                    <polygon points="3.62048733 0.0197173489 10.0913938 0.0197173489 10.0913938 4.55075049"></polygon>
                    <polygon points="17.8540253 4.55 17.8540253 0.0197173489 24.3241813 0.0197173489"></polygon>
                    <polygon points="0 6.22979532 0 3.17053606 4.37036062 6.22979532"></polygon>
                    <polygon points="24.3280702 20.2025049 17.856345 20.2025049 17.856345 15.6714717"></polygon>
                    <polygon points="23.574308 6.22979532 27.9454191 3.16978558 27.9454191 6.22979532 23.574308 6.22979532"></polygon>
                    <polygon points="23.5758772 13.9924269 27.9454191 13.9924269 27.9454191 17.0516862"></polygon>
                    <polygon points="10.0913938 20.2025049 3.62048733 20.2025049 10.0913938 15.6714717"></polygon>
                </g>
                <g id="Shape">
                    <g>
                        <g transform="translate(0.068226, 0.068226)" fill="#CF1B2B">
                            <path d="M19.4469688,6.1615692 L26.9860234,0.882231969 C27.3516472,1.25481481 27.6132261,1.72216374 27.7545224,2.23993177 L22.1537719,6.16163743 L19.4469688,6.16163743 L19.4469688,6.1615692 Z"></path>
                            <path d="M10.0231676,6.1615692 L8.36117934,6.1615692 L0.822875244,0.882982456 C1.22731969,0.471578947 1.74583821,0.177387914 2.32726121,0.0407309942 L10.0231676,5.42957115 L10.0231676,6.1615692 L10.0231676,6.1615692 Z"></path>
                            <path d="M17.7857992,13.9242008 L19.4477875,13.9242008 L26.9860916,19.2027875 C26.5816472,19.614191 26.0631287,19.9083821 25.4824561,20.045039 L17.7857992,14.6561988 L17.7857992,13.9242008 L17.7857992,13.9242008 Z"></path>
                            <path d="M8.36117934,13.9242008 L0.82294347,19.2027875 C0.457319688,18.8302047 0.195740741,18.3628558 0.0536939571,17.8450877 L5.65444444,13.9242008 L8.36117934,13.9242008 Z"></path>
                        </g>
                        <g fill="#EEEEEE">
                            <path d="M27.9454191,7.78234893 L16.3014717,7.78234893 L16.3014717,0.0197173489 L17.8540253,0.0197173489 L17.8540253,4.55 L24.3241813,0.0197173489 L24.8403801,0.0197173489 C25.7074659,0.0197173489 26.4907018,0.377563353 27.0542495,0.95045809 L19.5151949,6.22979532 L22.2219981,6.22979532 L27.8227485,2.30808967 C27.8949318,2.56966862 27.9454191,2.84059454 27.9454191,3.12468811 L27.9454191,3.16971735 L23.574308,6.2297271 L27.9454191,6.2297271 L27.9454191,7.78234893 Z"></path>
                            <path d="M0,7.78234893 L0,6.22979532 L4.37036062,6.22979532 L0,3.17053606 L0,3.12475634 C0,2.2778655 0.340789474,1.51168616 0.891169591,0.951208577 L8.42947368,6.22979532 L10.091462,6.22979532 L10.091462,5.49779727 L2.39555556,0.108957115 C2.62377193,0.0553996101 2.85976608,0.0197173489 3.10503899,0.0197173489 L3.62048733,0.0197173489 L10.0913938,4.55075049 L10.0913938,0.0197173489 L11.6439474,0.0197173489 L11.6439474,7.78234893 L0,7.78234893 Z"></path>
                            <path d="M27.9454191,17.0974659 C27.9454191,17.9443567 27.6046296,18.7105361 27.0542495,19.2710136 L19.5159454,13.9924269 L17.8539571,13.9924269 L17.8539571,14.724425 L25.5506823,20.1132651 C25.3217154,20.1668226 25.0857212,20.2025049 24.8403801,20.2025049 L24.3257505,20.2025049 L17.8540253,15.6714717 L17.8540253,20.2025049 L16.3014717,20.2025049 L16.3014717,12.4398733 L27.9454191,12.4398733 L27.9454191,13.9924269 L23.575809,13.9924269 L27.9454191,17.0516862 L27.9454191,17.0974659 Z"></path>
                            <path d="M10.0913938,20.2025049 L10.0913938,15.6714717 L3.62048733,20.2025049 L3.10503899,20.2025049 C2.23720273,20.2025049 1.45471735,19.8446589 0.891169591,19.2710136 L8.42947368,13.9924269 L5.72260234,13.9924269 L0.121851852,17.9133138 C0.0504873294,17.6517349 0,17.3815595 0,17.0974659 L0,17.0516862 L4.36879142,13.9924269 L0,13.9924269 L0,12.4398733 L11.6439474,12.4398733 L11.6439474,20.2025049 L10.0913938,20.2025049 L10.0913938,20.2025049 Z"></path>
                        </g>
                        <polygon fill="#CF1B2B" points="16.3014717 12.4398733 16.3014717 20.2025049 11.6438791 20.2025049 11.6438791 12.4398733 0 12.4398733 0 10.1111111 0 7.78234893 11.6439474 7.78234893 11.6439474 0.0197173489 16.30154 0.0197173489 16.30154 7.78234893 27.9454191 7.78234893 27.9454191 10.1111111 27.9454191 12.4398733"></polygon>
                    </g>
                </g>
            </g>
        </g>
    </g>
</svg>