<?xml version="1.0" encoding="UTF-8"?>
<svg width="32px" height="32px" viewBox="0 0 32 32" version="1.1" xmlns="http://www.w3.org/2000/svg" xmlns:xlink="http://www.w3.org/1999/xlink">
    <!-- Generator: Sketch 64 (93537) - https://sketch.com -->
    <title>icons/flags/usa</title>
    <desc>Created with Sketch.</desc>
    <g id="icons/flags/usa" stroke="none" stroke-width="1" fill="none" fill-rule="evenodd">
        <g id="united-states-of-america" transform="translate(2.000000, 6.000000)" fill-rule="nonzero">
            <path d="M0.0988460039,17.8257934 C0.119040936,17.9041715 0.144693957,17.9802573 0.170292398,18.0555789 C0.239391813,18.256655 0.32322807,18.4507992 0.428787524,18.6324444 C0.429606238,18.6339727 0.429606238,18.6363743 0.430424951,18.6363743 L0.430807018,18.6363743 C0.968756335,19.5609201 1.95847173,20.1888733 3.10505263,20.1888733 L24.8403665,20.1888733 C25.9868928,20.1888733 26.9766628,19.5608655 27.5146121,18.6363743 L27.5149942,18.6363743 C27.5157583,18.6363743 27.5157583,18.6339727 27.5165224,18.633154 C27.6213177,18.4522729 27.705154,18.2581832 27.7742534,18.0578713 C27.8006706,17.9810214 27.826269,17.9041715 27.8464639,17.8249747 C27.865076,17.754347 27.8790487,17.6829552 27.8922573,17.6115634 C27.9226043,17.4441092 27.9443821,17.2746355 27.9454737,17.0968109 L27.9454737,17.0838207 L27.9454737,15.5313216 L27.9454737,13.9788226 L27.9454737,12.4263236 L27.9454737,10.8738246 L27.9454737,9.32132554 L27.9454737,7.76882651 L27.9454737,6.21632749 L27.9454737,4.66382846 L27.9454737,3.11111111 C27.9454737,2.93023002 27.9237505,2.75480702 27.8919298,2.58325926 C27.8794854,2.51186745 27.8647485,2.44042105 27.8469006,2.3705575 C27.8259415,2.29059649 27.8003431,2.21298246 27.7739259,2.13613255 C27.7048265,1.93587524 27.6217544,1.74254971 27.5161949,1.5617232 C27.5161949,1.56095906 27.5154308,1.55937622 27.5146667,1.55861209 L27.5147758,1.55861209 C26.9768265,0.634066277 25.9871111,0.00611306043 24.8405302,0.00611306043 L13.9727096,0.00611306043 L13.9727096,1.55861209 L13.9727096,3.11111111 L13.9727096,4.66361014 L13.9727096,6.21610916 L13.9727096,7.76860819 L13.9727096,9.32110721 L13.9727096,10.8736062 L0,10.8736062 L0,12.4261053 L0,13.9786043 L0,15.5311033 L0,17.0838207 C0,17.2646472 0.0219415205,17.4392515 0.0529434698,17.6107446 C0.0661520468,17.6829552 0.0809980507,17.7551657 0.0988460039,17.8257934 Z" id="Shape" fill="#EEEEEE"></path>
            <g id="Group" fill="#B22334">
                <path d="M27.5146667,1.55861209 C26.9767173,0.634066277 25.9870019,0.00611306043 24.8404211,0.00611306043 L13.9727096,0.00611306043 L13.9727096,1.55861209 L27.5146667,1.55861209 L27.5146667,1.55861209 Z" id="Shape"></path>
                <polygon id="Shape" points="0 17.0838207 27.9454191 17.0838207 27.9454191 15.5313216 0 15.5313216"></polygon>
                <polygon id="Rectangle-path" points="13.9727096 9.32121637 27.9454191 9.32121637 27.9454191 10.8737154 13.9727096 10.8737154"></polygon>
                <polygon id="Rectangle-path" points="13.9727096 6.21616374 27.9454191 6.21616374 27.9454191 7.76866277 13.9727096 7.76866277"></polygon>
                <polygon id="Rectangle-path" points="0 12.426269 27.9454191 12.426269 27.9454191 13.978768 0 13.978768"></polygon>
                <path d="M24.8403665,20.1888733 C25.9868928,20.1888733 26.9766628,19.5608655 27.5146121,18.6363743 L0.430807018,18.6363743 C0.968756335,19.5609201 1.95847173,20.1888733 3.10505263,20.1888733 L24.8403665,20.1888733 Z" id="Shape"></path>
                <polygon id="Rectangle-path" points="13.9727096 3.11111111 27.9454191 3.11111111 27.9454191 4.66361014 13.9727096 4.66361014"></polygon>
            </g>
            <g id="Group" transform="translate(0.000000, 1.528265)" fill="#EEEEEE">
                <path d="M0,1.582846 C0,1.40196491 0.2135,1.22807018 0.4835,1.05575828 C0.199,1.22730604 0,1.40196491 0,1.582846" id="Shape"></path>
                <path d="M0.450722222,0.0303469786 C0.443722222,0.0443469786 0.436722222,0.0518469786 0.436722222,0.0658469786 C0.443722222,0.0513469786 0.443722222,0.0443469786 0.450722222,0.0303469786 Z" id="Shape"></path>
                <path d="M0.100888889,1.11048733 C0.236974516,0.938730701 0.426959225,0.775496799 0.600888889,0.610487329 C0.421607543,0.775496799 0.242326198,0.940506269 0.100888889,1.11048733" id="Shape"></path>
            </g>
            <path d="M13.9727096,0.00605847953 L3.10505263,0.00605847953 C1.3902846,0.00605847953 0,1.39634308 0,3.11111111 L0,10.8737154 L13.9727096,10.8737154 L13.9727096,0.00605847953 Z" id="Shape" fill="#3C3B6E"></path>
            <g id="Group" transform="translate(1.528265, 1.528265)" fill="#FFFFFF">
                <polygon id="Shape" points="0.025380117 0.593403509 0.505091618 0.941957115 0.321918129 1.50550487 0.800865497 1.15695127 1.280577 1.50550487 1.0965848 0.941957115 1.57711501 0.593403509 0.984038986 0.593403509 0.800865497 0.0298557505 0.61845614 0.593403509"></polygon>
                <polygon id="Shape" points="1.57787914 2.14590253 2.05759064 2.49445614 1.87359844 3.0580039 2.35330994 2.70945029 2.83302144 3.0580039 2.64902924 2.49445614 3.12955945 2.14590253 2.53653801 2.14590253 2.35336452 1.58235478 2.17095517 2.14590253"></polygon>
                <polygon id="Shape" points="4.68293177 2.14590253 5.16264327 2.49445614 4.97865107 3.0580039 5.45836257 2.70945029 5.93807407 3.0580039 5.75408187 2.49445614 6.23461209 2.14590253 5.64153606 2.14590253 5.45836257 1.58235478 5.27595322 2.14590253"></polygon>
                <polygon id="Shape" points="7.78798441 2.14590253 8.26769591 2.49445614 8.0837037 3.0580039 8.5634152 2.70945029 9.04312671 3.0580039 8.8591345 2.49445614 9.33966472 2.14590253 8.74658869 2.14590253 8.5634152 1.58235478 8.38100585 2.14590253"></polygon>
                <polygon id="Shape" points="1.57787914 5.25111891 2.05759064 5.59967251 1.87359844 6.16322027 2.35330994 5.81466667 2.83302144 6.16322027 2.64902924 5.59967251 3.12955945 5.25111891 2.53653801 5.25111891 2.35336452 4.68757115 2.17095517 5.25111891"></polygon>
                <polygon id="Shape" points="4.68293177 5.25111891 5.16264327 5.59967251 4.97865107 6.16322027 5.45836257 5.81466667 5.93807407 6.16322027 5.75408187 5.59967251 6.23461209 5.25111891 5.64153606 5.25111891 5.45836257 4.68757115 5.27595322 5.25111891"></polygon>
                <polygon id="Shape" points="7.78798441 5.25111891 8.26769591 5.59967251 8.0837037 6.16322027 8.5634152 5.81466667 9.04312671 6.16322027 8.8591345 5.59967251 9.33966472 5.25111891 8.74658869 5.25111891 8.5634152 4.68757115 8.38100585 5.25111891"></polygon>
                <polygon id="Shape" points="3.13037817 0.593403509 3.61008967 0.941957115 3.42609747 1.50550487 3.90580897 1.15695127 4.38552047 1.50550487 4.20152827 0.941957115 4.68205848 0.593403509 4.08898246 0.593403509 3.90580897 0.0298557505 3.72339961 0.593403509"></polygon>
                <polygon id="Shape" points="6.2354308 0.593403509 6.7151423 0.941957115 6.5311501 1.50550487 7.0108616 1.15695127 7.4905731 1.50550487 7.3065809 0.941957115 7.78711111 0.593403509 7.19403509 0.593403509 7.0108616 0.0298557505 6.82845224 0.593403509"></polygon>
                <polygon id="Shape" points="9.34048343 0.593403509 9.82019493 0.941957115 9.63620273 1.50550487 10.1159142 1.15695127 10.5956257 1.50550487 10.4116335 0.941957115 10.8921637 0.593403509 10.2990877 0.593403509 10.1159142 0.0298557505 9.93350487 0.593403509"></polygon>
                <polygon id="Shape" points="0.025380117 3.69861988 0.505091618 4.04717349 0.321918129 4.61072125 0.800865497 4.26216764 1.280577 4.61072125 1.0965848 4.04717349 1.57711501 3.69861988 0.984038986 3.69861988 0.800865497 3.13507212 0.61845614 3.69861988"></polygon>
                <polygon id="Shape" points="3.42647953 4.61061209 3.90619103 4.26205848 4.3851384 4.61061209 4.20196491 4.04706433 4.68167641 3.69851072 4.08936452 3.69851072 3.90619103 3.1357271 3.72301754 3.69851072 3.13070565 3.69851072 3.60965302 4.04706433"></polygon>
                <polygon id="Shape" points="6.2354308 3.69861988 6.7151423 4.04717349 6.5311501 4.61072125 7.0108616 4.26216764 7.4905731 4.61072125 7.3065809 4.04717349 7.78711111 3.69861988 7.19403509 3.69861988 7.0108616 3.13507212 6.82845224 3.69861988"></polygon>
                <polygon id="Shape" points="9.34048343 3.69861988 9.82019493 4.04717349 9.63620273 4.61072125 10.1159142 4.26216764 10.5956257 4.61072125 10.4116335 4.04717349 10.8921637 3.69861988 10.2990877 3.69861988 10.1159142 3.13507212 9.93350487 3.69861988"></polygon>
                <polygon id="Shape" points="0.025380117 6.80367251 0.505091618 7.15222612 0.321918129 7.71577388 0.800865497 7.36722027 1.280577 7.71577388 1.0965848 7.15222612 1.57711501 6.80367251 0.984038986 6.80367251 0.800865497 6.24012476 0.61845614 6.80367251"></polygon>
                <polygon id="Shape" points="3.42647953 7.71561014 3.90619103 7.36705653 4.3851384 7.71561014 4.20196491 7.15206238 4.68167641 6.80350877 4.08936452 6.80350877 3.90619103 6.24072515 3.72301754 6.80350877 3.13070565 6.80350877 3.60965302 7.15206238"></polygon>
                <polygon id="Shape" points="6.2354308 6.80367251 6.7151423 7.15222612 6.5311501 7.71577388 7.0108616 7.36722027 7.4905731 7.71577388 7.3065809 7.15222612 7.78711111 6.80367251 7.19403509 6.80367251 7.0108616 6.24012476 6.82845224 6.80367251"></polygon>
                <polygon id="Shape" points="9.34048343 6.80367251 9.82019493 7.15222612 9.63620273 7.71577388 10.1159142 7.36722027 10.5956257 7.71577388 10.4116335 7.15222612 10.8921637 6.80367251 10.2990877 6.80367251 10.1159142 6.24012476 9.93350487 6.80367251"></polygon>
            </g>
        </g>
    </g>
</svg>