<?xml version="1.0" encoding="UTF-8"?>
<svg width="32px" height="32px" viewBox="0 0 32 32" version="1.1" xmlns="http://www.w3.org/2000/svg" xmlns:xlink="http://www.w3.org/1999/xlink">
    <!-- Generator: Sketch 64 (93537) - https://sketch.com -->
    <title>icons/calculator</title>
    <desc>Created with Sketch.</desc>
    <g id="icons/calculator" stroke="none" stroke-width="1" fill="none" fill-rule="evenodd">
        <path d="M22.5,3 C24.709139,3 26.5,4.790861 26.5,7 L26.5,25 C26.5,27.209139 24.709139,29 22.5,29 L9.5,29 C7.290861,29 5.5,27.209139 5.5,25 L5.5,7 C5.5,4.790861 7.290861,3 9.5,3 L22.5,3 Z M22.5,5 L9.5,5 C8.3954305,5 7.5,5.8954305 7.5,7 L7.5,25 C7.5,26.1045695 8.3954305,27 9.5,27 L22.5,27 C23.6045695,27 24.5,26.1045695 24.5,25 L24.5,7 C24.5,5.8954305 23.6045695,5 22.5,5 Z M21,22 C21.8284271,22 22.5,22.6715729 22.5,23.5 C22.5,24.3284271 21.8284271,25 21,25 C20.1715729,25 19.5,24.3284271 19.5,23.5 C19.5,22.6715729 20.1715729,22 21,22 Z M16,22 C16.8284271,22 17.5,22.6715729 17.5,23.5 C17.5,24.3284271 16.8284271,25 16,25 C15.1715729,25 14.5,24.3284271 14.5,23.5 C14.5,22.6715729 15.1715729,22 16,22 Z M11,22 C11.8284271,22 12.5,22.6715729 12.5,23.5 C12.5,24.3284271 11.8284271,25 11,25 C10.1715729,25 9.5,24.3284271 9.5,23.5 C9.5,22.6715729 10.1715729,22 11,22 Z M21,17 C21.8284271,17 22.5,17.6715729 22.5,18.5 C22.5,19.3284271 21.8284271,20 21,20 C20.1715729,20 19.5,19.3284271 19.5,18.5 C19.5,17.6715729 20.1715729,17 21,17 Z M16,17 C16.8284271,17 17.5,17.6715729 17.5,18.5 C17.5,19.3284271 16.8284271,20 16,20 C15.1715729,20 14.5,19.3284271 14.5,18.5 C14.5,17.6715729 15.1715729,17 16,17 Z M11,17 C11.8284271,17 12.5,17.6715729 12.5,18.5 C12.5,19.3284271 11.8284271,20 11,20 C10.1715729,20 9.5,19.3284271 9.5,18.5 C9.5,17.6715729 10.1715729,17 11,17 Z M21,12 C21.8284271,12 22.5,12.6715729 22.5,13.5 C22.5,14.3284271 21.8284271,15 21,15 C20.1715729,15 19.5,14.3284271 19.5,13.5 C19.5,12.6715729 20.1715729,12 21,12 Z M16,12 C16.8284271,12 17.5,12.6715729 17.5,13.5 C17.5,14.3284271 16.8284271,15 16,15 C15.1715729,15 14.5,14.3284271 14.5,13.5 C14.5,12.6715729 15.1715729,12 16,12 Z M11,12 C11.8284271,12 12.5,12.6715729 12.5,13.5 C12.5,14.3284271 11.8284271,15 11,15 C10.1715729,15 9.5,14.3284271 9.5,13.5 C9.5,12.6715729 10.1715729,12 11,12 Z M21.5,7 C22.3284271,7 23,7.67157288 23,8.5 C23,9.32842712 22.3284271,10 21.5,10 L10.5,10 C9.67157288,10 9,9.32842712 9,8.5 C9,7.67157288 9.67157288,7 10.5,7 L21.5,7 Z" id="Combined-Shape" fill="#000000"></path>
    </g>
</svg>