<?xml version="1.0" encoding="UTF-8"?>
<svg width="32px" height="32px" viewBox="0 0 32 32" version="1.1" xmlns="http://www.w3.org/2000/svg" xmlns:xlink="http://www.w3.org/1999/xlink">
    <!-- Generator: Sketch 64 (93537) - https://sketch.com -->
    <title>icons/calculator-solid</title>
    <desc>Created with Sketch.</desc>
    <g id="icons/calculator-solid" stroke="none" stroke-width="1" fill="none" fill-rule="evenodd">
        <path d="M22,3 C24.209139,3 26,4.790861 26,7 L26,25 C26,27.209139 24.209139,29 22,29 L10,29 C7.790861,29 6,27.209139 6,25 L6,7 C6,4.790861 7.790861,3 10,3 L22,3 Z M21,22 C20.1715729,22 19.5,22.6715729 19.5,23.5 C19.5,24.3284271 20.1715729,25 21,25 C21.8284271,25 22.5,24.3284271 22.5,23.5 C22.5,22.6715729 21.8284271,22 21,22 Z M16,22 C15.1715729,22 14.5,22.6715729 14.5,23.5 C14.5,24.3284271 15.1715729,25 16,25 C16.8284271,25 17.5,24.3284271 17.5,23.5 C17.5,22.6715729 16.8284271,22 16,22 Z M11,22 C10.1715729,22 9.5,22.6715729 9.5,23.5 C9.5,24.3284271 10.1715729,25 11,25 C11.8284271,25 12.5,24.3284271 12.5,23.5 C12.5,22.6715729 11.8284271,22 11,22 Z M21,17 C20.1715729,17 19.5,17.6715729 19.5,18.5 C19.5,19.3284271 20.1715729,20 21,20 C21.8284271,20 22.5,19.3284271 22.5,18.5 C22.5,17.6715729 21.8284271,17 21,17 Z M16,17 C15.1715729,17 14.5,17.6715729 14.5,18.5 C14.5,19.3284271 15.1715729,20 16,20 C16.8284271,20 17.5,19.3284271 17.5,18.5 C17.5,17.6715729 16.8284271,17 16,17 Z M11,17 C10.1715729,17 9.5,17.6715729 9.5,18.5 C9.5,19.3284271 10.1715729,20 11,20 C11.8284271,20 12.5,19.3284271 12.5,18.5 C12.5,17.6715729 11.8284271,17 11,17 Z M21,12 C20.1715729,12 19.5,12.6715729 19.5,13.5 C19.5,14.3284271 20.1715729,15 21,15 C21.8284271,15 22.5,14.3284271 22.5,13.5 C22.5,12.6715729 21.8284271,12 21,12 Z M16,12 C15.1715729,12 14.5,12.6715729 14.5,13.5 C14.5,14.3284271 15.1715729,15 16,15 C16.8284271,15 17.5,14.3284271 17.5,13.5 C17.5,12.6715729 16.8284271,12 16,12 Z M11,12 C10.1715729,12 9.5,12.6715729 9.5,13.5 C9.5,14.3284271 10.1715729,15 11,15 C11.8284271,15 12.5,14.3284271 12.5,13.5 C12.5,12.6715729 11.8284271,12 11,12 Z M21.5,7 L10.5,7 C9.67157288,7 9,7.67157288 9,8.5 C9,9.27969612 9.59488808,9.92044868 10.35554,9.99313342 L10.5,10 L21.5,10 C22.3284271,10 23,9.32842712 23,8.5 C23,7.67157288 22.3284271,7 21.5,7 Z" id="Shape" fill="#000000"></path>
    </g>
</svg>