<?xml version="1.0" encoding="UTF-8"?>
<svg width="32px" height="32px" viewBox="0 0 32 32" version="1.1" xmlns="http://www.w3.org/2000/svg" xmlns:xlink="http://www.w3.org/1999/xlink">
    <!-- Generator: Sketch 64 (93537) - https://sketch.com -->
    <title>icons/calendar</title>
    <desc>Created with Sketch.</desc>
    <g id="icons/calendar" stroke="none" stroke-width="1" fill="none" fill-rule="evenodd">
        <path d="M6,11 L26,11 L26,7 L24,7 L24,8 C24,8.55228475 23.5522847,9 23,9 C22.4477153,9 22,8.55228475 22,8 L22,7 L10,7 L10,8 C10,8.55228475 9.55228475,9 9,9 C8.44771525,9 8,8.55228475 8,8 L8,7 L6,7 L6,11 Z M6,13 L6,27 L26,27 L26,13 L6,13 Z M24,5 L28,5 L28,29 L4,29 L4,5 L8,5 L8,4 C8,3.44771525 8.44771525,3 9,3 C9.55228475,3 10,3.44771525 10,4 L10,5 L22,5 L22,4 C22,3.44771525 22.4477153,3 23,3 C23.5522847,3 24,3.44771525 24,4 L24,5 Z M10,15 C10.5522847,15 11,15.4477153 11,16 C11,16.5522847 10.5522847,17 10,17 C9.44771525,17 9,16.5522847 9,16 C9,15.4477153 9.44771525,15 10,15 Z M10,19 C10.5522847,19 11,19.4477153 11,20 C11,20.5522847 10.5522847,21 10,21 C9.44771525,21 9,20.5522847 9,20 C9,19.4477153 9.44771525,19 10,19 Z M10,23 C10.5522847,23 11,23.4477153 11,24 C11,24.5522847 10.5522847,25 10,25 C9.44771525,25 9,24.5522847 9,24 C9,23.4477153 9.44771525,23 10,23 Z M14,15 C14.5522847,15 15,15.4477153 15,16 C15,16.5522847 14.5522847,17 14,17 C13.4477153,17 13,16.5522847 13,16 C13,15.4477153 13.4477153,15 14,15 Z M14,19 C14.5522847,19 15,19.4477153 15,20 C15,20.5522847 14.5522847,21 14,21 C13.4477153,21 13,20.5522847 13,20 C13,19.4477153 13.4477153,19 14,19 Z M14,23 C14.5522847,23 15,23.4477153 15,24 C15,24.5522847 14.5522847,25 14,25 C13.4477153,25 13,24.5522847 13,24 C13,23.4477153 13.4477153,23 14,23 Z M18,15 C18.5522847,15 19,15.4477153 19,16 C19,16.5522847 18.5522847,17 18,17 C17.4477153,17 17,16.5522847 17,16 C17,15.4477153 17.4477153,15 18,15 Z M18,19 C18.5522847,19 19,19.4477153 19,20 C19,20.5522847 18.5522847,21 18,21 C17.4477153,21 17,20.5522847 17,20 C17,19.4477153 17.4477153,19 18,19 Z M18,23 C18.5522847,23 19,23.4477153 19,24 C19,24.5522847 18.5522847,25 18,25 C17.4477153,25 17,24.5522847 17,24 C17,23.4477153 17.4477153,23 18,23 Z M22,15 C22.5522847,15 23,15.4477153 23,16 C23,16.5522847 22.5522847,17 22,17 C21.4477153,17 21,16.5522847 21,16 C21,15.4477153 21.4477153,15 22,15 Z M22,19 C22.5522847,19 23,19.4477153 23,20 C23,20.5522847 22.5522847,21 22,21 C21.4477153,21 21,20.5522847 21,20 C21,19.4477153 21.4477153,19 22,19 Z" id="Shape" fill="#000000" fill-rule="nonzero"></path>
    </g>
</svg>