<?xml version="1.0" encoding="UTF-8"?>
<svg width="32px" height="32px" viewBox="0 0 32 32" version="1.1" xmlns="http://www.w3.org/2000/svg" xmlns:xlink="http://www.w3.org/1999/xlink">
    <!-- Generator: Sketch 64 (93537) - https://sketch.com -->
    <title>icons/calendar-alt</title>
    <desc>Created with Sketch.</desc>
    <g id="icons/calendar-alt" stroke="none" stroke-width="1" fill="none" fill-rule="evenodd">
        <path d="M6,10 C5.17157288,10 4.5,9.32842712 4.5,8.5 C4.5,7.67157288 5.17157288,7 6,7 C6.82842712,7 7.5,7.67157288 7.5,8.5 C7.5,9.32842712 6.82842712,10 6,10 Z M6,15 C5.17157288,15 4.5,14.3284271 4.5,13.5 C4.5,12.6715729 5.17157288,12 6,12 C6.82842712,12 7.5,12.6715729 7.5,13.5 C7.5,14.3284271 6.82842712,15 6,15 Z M6,20 C5.17157288,20 4.5,19.3284271 4.5,18.5 C4.5,17.6715729 5.17157288,17 6,17 C6.82842712,17 7.5,17.6715729 7.5,18.5 C7.5,19.3284271 6.82842712,20 6,20 Z M6,25 C5.17157288,25 4.5,24.3284271 4.5,23.5 C4.5,22.6715729 5.17157288,22 6,22 C6.82842712,22 7.5,22.6715729 7.5,23.5 C7.5,24.3284271 6.82842712,25 6,25 Z M26,10 C25.1715729,10 24.5,9.32842712 24.5,8.5 C24.5,7.67157288 25.1715729,7 26,7 C26.8284271,7 27.5,7.67157288 27.5,8.5 C27.5,9.32842712 26.8284271,10 26,10 Z M26,15 C25.1715729,15 24.5,14.3284271 24.5,13.5 C24.5,12.6715729 25.1715729,12 26,12 C26.8284271,12 27.5,12.6715729 27.5,13.5 C27.5,14.3284271 26.8284271,15 26,15 Z M26,20 C25.1715729,20 24.5,19.3284271 24.5,18.5 C24.5,17.6715729 25.1715729,17 26,17 C26.8284271,17 27.5,17.6715729 27.5,18.5 C27.5,19.3284271 26.8284271,20 26,20 Z M21,10 C20.1715729,10 19.5,9.32842712 19.5,8.5 C19.5,7.67157288 20.1715729,7 21,7 C21.8284271,7 22.5,7.67157288 22.5,8.5 C22.5,9.32842712 21.8284271,10 21,10 Z M21,15 C20.1715729,15 19.5,14.3284271 19.5,13.5 C19.5,12.6715729 20.1715729,12 21,12 C21.8284271,12 22.5,12.6715729 22.5,13.5 C22.5,14.3284271 21.8284271,15 21,15 Z M21,20 C20.1715729,20 19.5,19.3284271 19.5,18.5 C19.5,17.6715729 20.1715729,17 21,17 C21.8284271,17 22.5,17.6715729 22.5,18.5 C22.5,19.3284271 21.8284271,20 21,20 Z M16,10 C15.1715729,10 14.5,9.32842712 14.5,8.5 C14.5,7.67157288 15.1715729,7 16,7 C16.8284271,7 17.5,7.67157288 17.5,8.5 C17.5,9.32842712 16.8284271,10 16,10 Z M16,15 C15.1715729,15 14.5,14.3284271 14.5,13.5 C14.5,12.6715729 15.1715729,12 16,12 C16.8284271,12 17.5,12.6715729 17.5,13.5 C17.5,14.3284271 16.8284271,15 16,15 Z M16,20 C15.1715729,20 14.5,19.3284271 14.5,18.5 C14.5,17.6715729 15.1715729,17 16,17 C16.8284271,17 17.5,17.6715729 17.5,18.5 C17.5,19.3284271 16.8284271,20 16,20 Z M16,25 C15.1715729,25 14.5,24.3284271 14.5,23.5 C14.5,22.6715729 15.1715729,22 16,22 C16.8284271,22 17.5,22.6715729 17.5,23.5 C17.5,24.3284271 16.8284271,25 16,25 Z M11,10 C10.1715729,10 9.5,9.32842712 9.5,8.5 C9.5,7.67157288 10.1715729,7 11,7 C11.8284271,7 12.5,7.67157288 12.5,8.5 C12.5,9.32842712 11.8284271,10 11,10 Z M11,15 C10.1715729,15 9.5,14.3284271 9.5,13.5 C9.5,12.6715729 10.1715729,12 11,12 C11.8284271,12 12.5,12.6715729 12.5,13.5 C12.5,14.3284271 11.8284271,15 11,15 Z M11,20 C10.1715729,20 9.5,19.3284271 9.5,18.5 C9.5,17.6715729 10.1715729,17 11,17 C11.8284271,17 12.5,17.6715729 12.5,18.5 C12.5,19.3284271 11.8284271,20 11,20 Z M11,25 C10.1715729,25 9.5,24.3284271 9.5,23.5 C9.5,22.6715729 10.1715729,22 11,22 C11.8284271,22 12.5,22.6715729 12.5,23.5 C12.5,24.3284271 11.8284271,25 11,25 Z" id="Shape" fill="#000000"></path>
    </g>
</svg>