<?xml version="1.0" encoding="UTF-8"?>
<svg width="32px" height="32px" viewBox="0 0 32 32" version="1.1" xmlns="http://www.w3.org/2000/svg" xmlns:xlink="http://www.w3.org/1999/xlink">
    <!-- Generator: Sketch 64 (93537) - https://sketch.com -->
    <title>icons/camera</title>
    <desc>Created with Sketch.</desc>
    <g id="icons/camera" stroke="none" stroke-width="1" fill="none" fill-rule="evenodd">
        <path d="M22,4 L22,7 L30,7 L30,27 L2,27 L2,7 L10,7 L10,4 L22,4 Z M16,22 C18.7614237,22 21,19.7614237 21,17 C21,14.2385763 18.7614237,12 16,12 C13.2385763,12 11,14.2385763 11,17 C11,19.7614237 13.2385763,22 16,22 Z M6.5,13 C7.32842712,13 8,12.3284271 8,11.5 C8,10.6715729 7.32842712,10 6.5,10 C5.67157288,10 5,10.6715729 5,11.5 C5,12.3284271 5.67157288,13 6.5,13 Z" id="Combined-Shape" fill="#000000"></path>
    </g>
</svg>