<?xml version="1.0" encoding="UTF-8"?>
<svg width="32px" height="32px" viewBox="0 0 32 32" version="1.1" xmlns="http://www.w3.org/2000/svg" xmlns:xlink="http://www.w3.org/1999/xlink">
    <!-- Generator: Sketch 64 (93537) - https://sketch.com -->
    <title>icons/car</title>
    <desc>Created with Sketch.</desc>
    <g id="icons/car" stroke="none" stroke-width="1" fill="none" fill-rule="evenodd">
        <path d="M6.85714286,14 L10,7 L22,7 L25.1428571,14 L28,14 C28.5522847,14 29,14.4477153 29,15 C29,15.5522847 28.5522847,16 28,16 L27,16 L27,23 L5,23 L5,16 L4,16 C3.44771525,16 3,15.5522847 3,15 C3,14.4477153 3.44771525,14 4,14 L6.85714286,14 Z M6,23 L11,23 L11,25 C11,25.5522847 10.5522847,26 10,26 L7,26 C6.44771525,26 6,25.5522847 6,25 L6,23 Z M21,23 L26,23 L26,25 C26,25.5522847 25.5522847,26 25,26 L22,26 C21.4477153,26 21,25.5522847 21,25 L21,23 Z M9.03307803,14 L22.966922,14 L20.6812077,9 L11.3187923,9 L9.03307803,14 Z M8.5,19 C9.32842712,19 10,18.3284271 10,17.5 C10,16.6715729 9.32842712,16 8.5,16 C7.67157288,16 7,16.6715729 7,17.5 C7,18.3284271 7.67157288,19 8.5,19 Z M23.5,19 C24.3284271,19 25,18.3284271 25,17.5 C25,16.6715729 24.3284271,16 23.5,16 C22.6715729,16 22,16.6715729 22,17.5 C22,18.3284271 22.6715729,19 23.5,19 Z" id="Shape" fill="#000000"></path>
    </g>
</svg>