<?xml version="1.0" encoding="UTF-8"?>
<svg width="32px" height="32px" viewBox="0 0 32 32" version="1.1" xmlns="http://www.w3.org/2000/svg" xmlns:xlink="http://www.w3.org/1999/xlink">
    <!-- Generator: Sketch 64 (93537) - https://sketch.com -->
    <title>icons/card</title>
    <desc>Created with Sketch.</desc>
    <g id="icons/card" stroke="none" stroke-width="1" fill="none" fill-rule="evenodd">
        <path d="M28,12 L28,9.5 C28,8.67157288 27.3284271,8 26.5,8 L5.5,8 C4.67157288,8 4,8.67157288 4,9.5 L4,12 L28,12 Z M28,16 L4,16 L4,22.5 C4,23.3284271 4.67157288,24 5.5,24 L26.5,24 C27.3284271,24 28,23.3284271 28,22.5 L28,16 Z M5,6 L27,6 C28.6568542,6 30,7.34314575 30,9 L30,23 C30,24.6568542 28.6568542,26 27,26 L5,26 C3.34314575,26 2,24.6568542 2,23 L2,9 C2,7.34314575 3.34314575,6 5,6 Z" id="Shape" fill="#000000" fill-rule="nonzero"></path>
    </g>
</svg>