<?xml version="1.0" encoding="UTF-8"?>
<svg width="32px" height="32px" viewBox="0 0 32 32" version="1.1" xmlns="http://www.w3.org/2000/svg" xmlns:xlink="http://www.w3.org/1999/xlink">
    <!-- Generator: Sketch 64 (93537) - https://sketch.com -->
    <title>icons/checkbox--selected</title>
    <desc>Created with Sketch.</desc>
    <g id="icons/checkbox--selected" stroke="none" stroke-width="1" fill="none" fill-rule="evenodd">
        <path d="M6,4 C4.8954305,4 4,4.8954305 4,6 L4,26 C4,27.1045695 4.8954305,28 6,28 L26,28 C27.1045695,28 28,27.1045695 28,26 L28,6 C28,4.8954305 27.1045695,4 26,4 L6,4 Z M6,2 L26,2 C28.209139,2 30,3.790861 30,6 L30,26 C30,28.209139 28.209139,30 26,30 L6,30 C3.790861,30 2,28.209139 2,26 L2,6 C2,3.790861 3.790861,2 6,2 Z" id="Rectangle" fill="#000000" fill-rule="nonzero"></path>
    </g>
</svg>