<?xml version="1.0" encoding="UTF-8"?>
<svg width="32px" height="32px" viewBox="0 0 32 32" version="1.1" xmlns="http://www.w3.org/2000/svg" xmlns:xlink="http://www.w3.org/1999/xlink">
    <!-- Generator: Sketch 64 (93537) - https://sketch.com -->
    <title>icons/compass</title>
    <desc>Created with Sketch.</desc>
    <g id="icons/compass" stroke="none" stroke-width="1" fill="none" fill-rule="evenodd">
        <path d="M23,28.1243557 C16.3039033,31.9903489 7.7416376,29.6960967 3.87564435,23 C0.00965109842,16.3039033 2.30390327,7.7416376 9,3.87564435 C15.6960967,0.00965109842 24.2583624,2.30390327 28.1243557,9 C31.9903489,15.6960967 29.6960967,24.2583624 23,28.1243557 Z M22,26.3923048 C27.7395115,23.0785963 29.7060133,15.7395115 26.3923048,10 C23.0785963,4.26048852 15.7395115,2.29398666 10,5.60769515 C4.26048852,8.92140365 2.29398666,16.2604885 5.60769515,22 C8.92140365,27.7395115 16.2604885,29.7060133 22,26.3923048 Z M11.75,8.63878407 L24.4461524,18.6291651 L17.5192308,18.6313849 L14.0538476,24.6291651 L11.75,8.63878407 Z" id="Shape" fill="#000000" fill-rule="nonzero"></path>
    </g>
</svg>