<?xml version="1.0" encoding="UTF-8"?>
<svg width="32px" height="32px" viewBox="0 0 32 32" version="1.1" xmlns="http://www.w3.org/2000/svg" xmlns:xlink="http://www.w3.org/1999/xlink">
    <!-- Generator: Sketch 64 (93537) - https://sketch.com -->
    <title>icons/design</title>
    <desc>Created with Sketch.</desc>
    <g id="icons/design" stroke="none" stroke-width="1" fill="none" fill-rule="evenodd">
        <path d="M23.9246213,20.5563492 L22.5104077,19.1421356 L21.0961942,20.5563492 L20.3890874,19.8492424 L21.803301,18.4350288 L21.0961942,17.7279221 L21.803301,17.0208153 L27.4601552,22.6776695 L23.2175145,26.9203102 L17.5606603,21.263456 L18.2677671,20.5563492 L23.2175145,25.5060967 L26.0459417,22.6776695 L24.6317281,21.263456 L23.2175145,22.6776695 L22.5104077,21.9705627 L23.9246213,20.5563492 Z M11.1966992,7.82842712 L9.78248569,6.41421356 L6.95405856,9.24264069 L11.903806,14.1923882 L11.1966992,14.8994949 L5.539845,9.24264069 L9.78248569,5 L15.4393399,10.6568542 L14.7322332,11.363961 L14.0251264,10.6568542 L12.6109128,12.0710678 L11.903806,11.363961 L13.3180196,9.94974747 L11.903806,8.53553391 L10.4895925,9.94974747 L9.78248569,9.24264069 L11.1966992,7.82842712 Z M23.263456,5 L27.5060967,9.24264069 L11.6568542,25.0918831 L7.41421356,20.8492424 L23.263456,5 Z M6,26.5060967 L6.70710678,21.5563492 L10.9497475,25.7989899 L6,26.5060967 Z" id="Shape" fill="#000000" fill-rule="nonzero"></path>
    </g>
</svg>