<?xml version="1.0" encoding="UTF-8"?>
<svg width="32px" height="32px" viewBox="0 0 32 32" version="1.1" xmlns="http://www.w3.org/2000/svg" xmlns:xlink="http://www.w3.org/1999/xlink">
    <!-- Generator: Sketch 64 (93537) - https://sketch.com -->
    <title>icons/eye</title>
    <desc>Created with Sketch.</desc>
    <g id="icons/eye" stroke="none" stroke-width="1" fill="none" fill-rule="evenodd">
        <path d="M16,23 C21.0729799,23 25.6557005,20.2783675 28.1278226,16 C25.6557005,11.7216325 21.0729799,9 16,9 C10.9270201,9 6.34429951,11.7216325 3.87217743,16 C6.34429951,20.2783675 10.9270201,23 16,23 Z M16,7 C22.3262392,7 27.7949467,10.6715295 30.3915342,16 C27.7949467,21.3284705 22.3262392,25 16,25 C9.67376082,25 4.20505329,21.3284705 1.60846581,16 C4.20505329,10.6715295 9.67376082,7 16,7 Z M16,21 C13.2385763,21 11,18.7614237 11,16 C11,13.2385763 13.2385763,11 16,11 C18.7614237,11 21,13.2385763 21,16 C21,18.7614237 18.7614237,21 16,21 Z M17,17 C18.1045695,17 19,16.1045695 19,15 C19,13.8954305 18.1045695,13 17,13 C15.8954305,13 15,13.8954305 15,15 C15,16.1045695 15.8954305,17 17,17 Z" id="Shape" fill="#000000" fill-rule="nonzero"></path>
    </g>
</svg>