<?xml version="1.0" encoding="UTF-8"?>
<svg width="32px" height="32px" viewBox="0 0 32 32" version="1.1" xmlns="http://www.w3.org/2000/svg" xmlns:xlink="http://www.w3.org/1999/xlink">
    <!-- Generator: Sketch 64 (93537) - https://sketch.com -->
    <title>icons/faceid</title>
    <desc>Created with Sketch.</desc>
    <g id="icons/faceid" stroke="none" stroke-width="1" fill="none" fill-rule="evenodd">
        <path d="M15,23.9381062 C11.0536884,23.4460082 8,20.0796177 8,16 C8,11.581722 11.581722,8 16,8 C20.418278,8 24,11.581722 24,16 C24,20.0796177 20.9463116,23.4460082 17,23.9381062 L17,28 L15,28 L15,23.9381062 L15,23.9381062 Z M16,22 C19.3137085,22 22,19.3137085 22,16 C22,12.6862915 19.3137085,10 16,10 C12.6862915,10 10,12.6862915 10,16 C10,19.3137085 12.6862915,22 16,22 Z M6,10 L4,10 L4,8 C4,5.790861 5.790861,4 8,4 L10,4 L10,6 L8,6 C6.8954305,6 6,6.8954305 6,8 L6,10 Z M26,10 L26,8 C26,6.8954305 25.1045695,6 24,6 L22,6 L22,4 L24,4 C26.209139,4 28,5.790861 28,8 L28,10 L26,10 Z M22,26 L24,26 C25.1045695,26 26,25.1045695 26,24 L26,22 L28,22 L28,24 C28,26.209139 26.209139,28 24,28 L22,28 L22,26 Z M6,22 L6,24 C6,25.1045695 6.8954305,26 8,26 L10,26 L10,28 L8,28 C5.790861,28 4,26.209139 4,24 L4,22 L6,22 Z" id="Shape" fill="#000000"></path>
    </g>
</svg>