<?xml version="1.0" encoding="UTF-8"?>
<svg width="32px" height="32px" viewBox="0 0 32 32" version="1.1" xmlns="http://www.w3.org/2000/svg" xmlns:xlink="http://www.w3.org/1999/xlink">
    <!-- Generator: Sketch 64 (93537) - https://sketch.com -->
    <title>icons/globe</title>
    <desc>Created with Sketch.</desc>
    <g id="icons/globe" stroke="none" stroke-width="1" fill="none" fill-rule="evenodd">
        <path d="M7.83879165,17.9104687 C6.42810227,16.1865982 5.58173698,13.9830072 5.58173698,11.581737 C5.58173698,6.05888948 10.0588895,1.58173698 15.581737,1.58173698 C17.9830072,1.58173698 20.1865982,2.42810227 21.9104687,3.83879165 L24.7492604,1 C24.9993022,1.21707508 25.243479,1.44448909 25.4812319,1.68224204 C30.948572,7.14958213 30.948572,16.0138918 25.4812319,21.4812319 C23.0020609,23.9604029 19.8244124,25.3153913 16.581737,25.546197 L16.581737,27.581737 L23.581737,27.581737 L23.581737,29.581737 L7.58173698,29.581737 L7.58173698,27.581737 L14.581737,27.581737 L14.581737,25.546197 C11.3390616,25.3153913 8.16141305,23.9604029 5.68224204,21.4812319 C5.44448909,21.243479 5.21707508,20.9993022 5,20.7492604 L7.83879165,17.9104687 L7.83879165,17.9104687 Z M9.25300522,19.3246823 L7.83260593,20.7450816 C12.5473687,24.7412104 19.6188473,24.5151894 24.0670184,20.0670184 C28.5151894,15.6188473 28.7412104,8.54736868 24.7450816,3.83260593 L23.3246823,5.25300522 C24.7353717,6.97687579 25.581737,9.18046678 25.581737,11.581737 C25.581737,17.1045845 21.1045845,21.581737 15.581737,21.581737 C13.1804668,21.581737 10.9768758,20.7353717 9.25300522,19.3246823 Z" id="Combined-Shape" fill="#000000"></path>
    </g>
</svg>