<?xml version="1.0" encoding="UTF-8"?>
<svg width="32px" height="32px" viewBox="0 0 32 32" version="1.1" xmlns="http://www.w3.org/2000/svg" xmlns:xlink="http://www.w3.org/1999/xlink">
    <!-- Generator: Sketch 64 (93537) - https://sketch.com -->
    <title>icons/grid--small</title>
    <desc>Created with Sketch.</desc>
    <g id="icons/grid--small" stroke="none" stroke-width="1" fill="none" fill-rule="evenodd">
        <path d="M4,4 L11,4 L11,11 L4,11 L4,4 Z M12.5,4 L19.5,4 L19.5,11 L12.5,11 L12.5,4 Z M4,12.5 L11,12.5 L11,19.5 L4,19.5 L4,12.5 Z M12.5,12.5 L19.5,12.5 L19.5,19.5 L12.5,19.5 L12.5,12.5 Z M4,21 L11,21 L11,28 L4,28 L4,21 Z M12.5,21 L19.5,21 L19.5,28 L12.5,28 L12.5,21 Z M21,4 L28,4 L28,11 L21,11 L21,4 Z M21,12.5 L28,12.5 L28,19.5 L21,19.5 L21,12.5 Z M21,21 L28,21 L28,28 L21,28 L21,21 Z" id="Shape" fill="#000000"></path>
    </g>
</svg>