<?xml version="1.0" encoding="UTF-8"?>
<svg width="32px" height="32px" viewBox="0 0 32 32" version="1.1" xmlns="http://www.w3.org/2000/svg" xmlns:xlink="http://www.w3.org/1999/xlink">
    <!-- Generator: Sketch 64 (93537) - https://sketch.com -->
    <title>icons/grid</title>
    <desc>Created with Sketch.</desc>
    <g id="icons/grid" stroke="none" stroke-width="1" fill="none" fill-rule="evenodd">
        <path d="M5,4 L14,4 C14.5522847,4 15,4.44771525 15,5 L15,14 C15,14.5522847 14.5522847,15 14,15 L5,15 C4.44771525,15 4,14.5522847 4,14 L4,5 C4,4.44771525 4.44771525,4 5,4 Z M6,6 L6,13 L13,13 L13,6 L6,6 Z M5,17 L14,17 C14.5522847,17 15,17.4477153 15,18 L15,27 C15,27.5522847 14.5522847,28 14,28 L5,28 C4.44771525,28 4,27.5522847 4,27 L4,18 C4,17.4477153 4.44771525,17 5,17 Z M6,19 L6,26 L13,26 L13,19 L6,19 Z M18,4 L27,4 C27.5522847,4 28,4.44771525 28,5 L28,14 C28,14.5522847 27.5522847,15 27,15 L18,15 C17.4477153,15 17,14.5522847 17,14 L17,5 C17,4.44771525 17.4477153,4 18,4 Z M19,6 L19,13 L26,13 L26,6 L19,6 Z M18,17 L27,17 C27.5522847,17 28,17.4477153 28,18 L28,27 C28,27.5522847 27.5522847,28 27,28 L18,28 C17.4477153,28 17,27.5522847 17,27 L17,18 C17,17.4477153 17.4477153,17 18,17 Z M19,19 L19,26 L26,26 L26,19 L19,19 Z" id="Shape" fill="#000000" fill-rule="nonzero"></path>
    </g>
</svg>