<?xml version="1.0" encoding="UTF-8"?>
<svg width="32px" height="32px" viewBox="0 0 32 32" version="1.1" xmlns="http://www.w3.org/2000/svg" xmlns:xlink="http://www.w3.org/1999/xlink">
    <!-- Generator: Sketch 64 (93537) - https://sketch.com -->
    <title>icons/info-solid</title>
    <desc>Created with Sketch.</desc>
    <g id="icons/info-solid" stroke="none" stroke-width="1" fill="none" fill-rule="evenodd">
        <path d="M16,2 C23.7319865,2 30,8.2680135 30,16 C30,23.7319865 23.7319865,30 16,30 C8.2680135,30 2,23.7319865 2,16 C2,8.2680135 8.2680135,2 16,2 Z M17,14 L15,14 L15,23 L17,23 L17,14 Z M16,9 C15.1715729,9 14.5,9.67157288 14.5,10.5 C14.5,11.3284271 15.1715729,12 16,12 C16.8284271,12 17.5,11.3284271 17.5,10.5 C17.5,9.67157288 16.8284271,9 16,9 Z" id="Combined-Shape" fill="#000000" fill-rule="nonzero"></path>
    </g>
</svg>