<?xml version="1.0" encoding="UTF-8"?>
<svg width="32px" height="32px" viewBox="0 0 32 32" version="1.1" xmlns="http://www.w3.org/2000/svg" xmlns:xlink="http://www.w3.org/1999/xlink">
    <!-- Generator: Sketch 64 (93537) - https://sketch.com -->
    <title>icons/menu3</title>
    <desc>Created with Sketch.</desc>
    <g id="icons/menu3" stroke="none" stroke-width="1" fill="none" fill-rule="evenodd">
        <path d="M6,22 C7.1045695,22 8,22.8954305 8,24 C8,25.1045695 7.1045695,26 6,26 C4.8954305,26 4,25.1045695 4,24 C4,22.8954305 4.8954305,22 6,22 Z M28,23 L28,25 L11,25 L11,23 L28,23 Z M6,14 C7.1045695,14 8,14.8954305 8,16 C8,17.1045695 7.1045695,18 6,18 C4.8954305,18 4,17.1045695 4,16 C4,14.8954305 4.8954305,14 6,14 Z M28,15 L28,17 L11,17 L11,15 L28,15 Z M6,6 C7.1045695,6 8,6.8954305 8,8 C8,9.1045695 7.1045695,10 6,10 C4.8954305,10 4,9.1045695 4,8 C4,6.8954305 4.8954305,6 6,6 Z M28,7 L28,9 L11,9 L11,7 L28,7 Z" id="Mask" fill="#000000"></path>
    </g>
</svg>