<?xml version="1.0" encoding="UTF-8"?>
<svg width="32px" height="32px" viewBox="0 0 32 32" version="1.1" xmlns="http://www.w3.org/2000/svg" xmlns:xlink="http://www.w3.org/1999/xlink">
    <!-- Generator: Sketch 64 (93537) - https://sketch.com -->
    <title>icons/messages</title>
    <desc>Created with Sketch.</desc>
    <g id="icons/messages" stroke="none" stroke-width="1" fill="none" fill-rule="evenodd">
        <path d="M19.7751402,23.4171754 L20.8865602,22.7203108 C22.5708009,21.6642853 23.8611265,20.0863742 24.556074,18.1770217 C26.2561066,13.5062206 23.8478228,8.3416394 19.1770217,6.64160682 C14.5062206,4.94157423 9.3416394,7.34985798 7.64160682,12.0206591 C5.94157423,16.6914603 8.34985798,21.8560414 13.0206591,23.556074 L20.1913742,26.1660008 L19.7751402,23.4171754 Z M22.6732377,29.1976808 L12.3366188,25.4354592 C6.62786189,23.3576416 3.68440397,17.0453758 5.76222158,11.3366188 C7.84003918,5.62786189 14.152305,2.68440397 19.861062,4.76222158 C25.5698189,6.84003918 28.5132768,13.152305 26.4354592,18.861062 C25.5648084,21.2531555 23.9506762,23.15972 21.9489987,24.4147795 L22.6732377,29.1976808 Z" id="Shape" fill="#000000" fill-rule="nonzero"></path>
    </g>
</svg>