<?xml version="1.0" encoding="UTF-8"?>
<svg width="32px" height="32px" viewBox="0 0 32 32" version="1.1" xmlns="http://www.w3.org/2000/svg" xmlns:xlink="http://www.w3.org/1999/xlink">
    <!-- Generator: Sketch 64 (93537) - https://sketch.com -->
    <title>icons/messages copy</title>
    <desc>Created with Sketch.</desc>
    <g id="icons/messages-copy" stroke="none" stroke-width="1" fill="none" fill-rule="evenodd">
        <path d="M12.7296217,25.5062336 L13.1015266,25.621852 L21.2162713,28.1306468 L20.6971995,25.0394972 L21.8291903,24.3305264 C25.022219,22.3307187 27,18.836489 27,15 C27,8.92486775 22.0751322,4 16,4 C9.92486775,4 5,8.92486775 5,15 C5,19.8513093 8.16923626,24.0884929 12.7296217,25.5062336 Z M23.7261004,31 L12.1358879,27.4160713 C11.8626352,27.337372 11.5333935,27.2195912 11.1481628,27.0627289 C10.7629321,26.9058666 10.4642993,26.7728153 10.2522643,26.663575 C5.95547208,24.5421055 3,20.1161965 3,15 C3,7.82029825 8.82029825,2 16,2 C23.1797017,2 29,7.82029825 29,15 C29,19.6486986 26.5599697,23.7274976 22.8907776,26.0255287 L23.7261004,31 Z" id="Shape" fill="#000000" fill-rule="nonzero"></path>
    </g>
</svg>