<?xml version="1.0" encoding="UTF-8"?>
<svg width="32px" height="32px" viewBox="0 0 32 32" version="1.1" xmlns="http://www.w3.org/2000/svg" xmlns:xlink="http://www.w3.org/1999/xlink">
    <!-- Generator: Sketch 64 (93537) - https://sketch.com -->
    <title>icons/money</title>
    <desc>Created with Sketch.</desc>
    <g id="icons/money" stroke="none" stroke-width="1" fill="none" fill-rule="evenodd">
        <path d="M15.1000404,25.8694298 C10.6572831,25.5685781 9.08035372,22.6668826 9,20.3232323 L11.2767677,20.3232323 C11.4747475,22.2606061 13.1151515,23.8444444 16.1555556,23.8444444 C18.8989899,23.8444444 20.6949495,22.5151515 20.6949495,20.3232323 C20.6949495,18.6828283 19.6909091,17.7353535 17.5131313,17.169697 L14.0484848,16.2505051 C11.8141414,15.6565657 9.59393939,14.2141414 9.59393939,11.230303 C9.59393939,8.03205595 12.1613731,6.15676596 15.1000404,5.78412214 L15.1000404,3 L17.3626667,3 L17.3626667,5.79089219 C20.1285188,6.15383933 22.7275893,7.83675125 22.8020202,11.1737374 L20.5393939,11.1737374 C20.3555556,9.25050505 18.9131313,7.76565657 16.1414141,7.76565657 C13.6949495,7.76565657 11.8848485,8.93939394 11.8848485,11.0747475 C11.8848485,12.4888889 12.7474747,13.5494949 14.6141414,14.030303 L18.0080808,14.9494949 C20.9919192,15.7555556 23,17.1272727 23,20.1676768 C23,23.4759585 20.5720853,25.3617175 17.3626667,25.7970485 L17.3626667,28.7939394 L15.1000404,28.7939394 L15.1000404,25.8694298 Z" id="Path" fill="#000000"></path>
    </g>
</svg>