<?xml version="1.0" encoding="UTF-8"?>
<svg width="32px" height="32px" viewBox="0 0 32 32" version="1.1" xmlns="http://www.w3.org/2000/svg" xmlns:xlink="http://www.w3.org/1999/xlink">
    <!-- Generator: Sketch 64 (93537) - https://sketch.com -->
    <title>icons/percentage</title>
    <desc>Created with Sketch.</desc>
    <g id="icons/percentage" stroke="none" stroke-width="1" fill="none" fill-rule="evenodd">
        <path d="M11,14 C9.34314575,14 8,12.6568542 8,11 C8,9.34314575 9.34314575,8 11,8 C12.6568542,8 14,9.34314575 14,11 C14,12.6568542 12.6568542,14 11,14 Z M11,12.5 C11.8284271,12.5 12.5,11.8284271 12.5,11 C12.5,10.1715729 11.8284271,9.5 11,9.5 C10.1715729,9.5 9.5,10.1715729 9.5,11 C9.5,11.8284271 10.1715729,12.5 11,12.5 Z M21,24 C19.3431458,24 18,22.6568542 18,21 C18,19.3431458 19.3431458,18 21,18 C22.6568542,18 24,19.3431458 24,21 C24,22.6568542 22.6568542,24 21,24 Z M21,22.5 C21.8284271,22.5 22.5,21.8284271 22.5,21 C22.5,20.1715729 21.8284271,19.5 21,19.5 C20.1715729,19.5 19.5,20.1715729 19.5,21 C19.5,21.8284271 20.1715729,22.5 21,22.5 Z M23.0710678,7.51471863 L24.4852814,8.92893219 L8.92893219,24.4852814 L7.51471863,23.0710678 L23.0710678,7.51471863 Z" id="Shape" fill="#000000" fill-rule="nonzero"></path>
    </g>
</svg>