<?xml version="1.0" encoding="UTF-8"?>
<svg width="32px" height="32px" viewBox="0 0 32 32" version="1.1" xmlns="http://www.w3.org/2000/svg" xmlns:xlink="http://www.w3.org/1999/xlink">
    <!-- Generator: Sketch 64 (93537) - https://sketch.com -->
    <title>icons/phone</title>
    <desc>Created with Sketch.</desc>
    <g id="icons/phone" stroke="none" stroke-width="1" fill="none" fill-rule="evenodd">
        <path d="M26.7743027,23.4866963 C25.5281271,26.4750607 22.6062877,26.9987947 21.6514893,26.9987947 C21.371112,26.9987947 17.0046084,27.2303428 10.7277748,21.2748861 C5.67633902,16.4820602 5.05911786,11.3280974 5.00534018,10.3488469 C4.95302916,9.39502517 5.22607313,7.0022798 8.51677858,5.22446951 C8.92451121,5.00416871 9.7328876,4.90661042 9.94164279,5.11541939 C10.0342871,5.20808754 12.7962601,9.75420593 12.86886,9.90482224 C12.9414598,10.055194 12.977882,10.2033653 12.977882,10.3486024 C12.977882,10.5561888 12.8299934,10.8158553 12.5339717,11.1273572 C12.2381944,11.4388591 11.9165061,11.7244432 11.5686622,11.9838651 C11.2208184,12.2435316 10.89913,12.5186019 10.6031083,12.8093207 C10.3073311,13.099795 10.1594424,13.3389229 10.1594424,13.5257262 C10.1794868,14.0105836 10.5767084,15.7473167 13.6026809,18.4068192 C16.6291424,21.0670552 18.0870065,21.8164691 18.227073,21.8683046 C18.3673838,21.92014 18.4839836,21.9458133 18.5773613,21.9458133 C18.7643609,21.9458133 19.0031827,21.7981311 19.2938267,21.5022776 C19.5842262,21.2061796 20.561269,19.8667704 20.8726906,19.5706724 C21.1841123,19.2750635 21.4437119,19.1271367 21.6514893,19.1271367 C21.796689,19.1271367 21.9445777,19.1633238 22.0949108,19.2359424 C22.2454883,19.3085609 26.7963027,21.97222 26.8833247,22.0612206 C27.1194577,22.3032825 26.9527468,23.0588091 26.7743027,23.4866963" id="Path" fill="#000000"></path>
    </g>
</svg>