<?xml version="1.0" encoding="UTF-8"?>
<svg width="32px" height="32px" viewBox="0 0 32 32" version="1.1" xmlns="http://www.w3.org/2000/svg" xmlns:xlink="http://www.w3.org/1999/xlink">
    <!-- Generator: Sketch 64 (93537) - https://sketch.com -->
    <title>icons/pie-progress</title>
    <desc>Created with Sketch.</desc>
    <g id="icons/pie-progress" stroke="none" stroke-width="1" fill="none" fill-rule="evenodd">
        <path d="M26.8901139,10.95277 C24.1041389,12.2480849 20.4741009,13.9304948 16,16 L16,4 C9.372583,4 4,9.372583 4,16 C4,22.627417 9.372583,28 16,28 C22.627417,28 28,22.627417 28,16 C28,14.197094 27.6024052,12.4870512 26.8901139,10.95277 L26.8901139,10.95277 Z M16,30 C8.2680135,30 2,23.7319865 2,16 C2,8.2680135 8.2680135,2 16,2 C23.7319865,2 30,8.2680135 30,16 C30,23.7319865 23.7319865,30 16,30 Z" id="Shape" fill="#000000" fill-rule="nonzero"></path>
    </g>
</svg>