<?xml version="1.0" encoding="UTF-8"?>
<svg width="32px" height="32px" viewBox="0 0 32 32" version="1.1" xmlns="http://www.w3.org/2000/svg" xmlns:xlink="http://www.w3.org/1999/xlink">
    <!-- Generator: Sketch 64 (93537) - https://sketch.com -->
    <title>icons/pin</title>
    <desc>Created with Sketch.</desc>
    <g id="icons/pin" stroke="none" stroke-width="1" fill="none" fill-rule="evenodd">
        <path d="M7.28986794,22.9759491 L13.09411,17.3708577 L9.1662918,13.3034829 C9.23097671,13.2282481 9.29971759,13.1553379 9.37250933,13.0850438 C10.5442871,11.9534711 12.3569067,11.894641 13.5951977,12.8873424 L20.2905941,7.09504083 C19.8371995,6.1827774 20.0017937,5.04532586 20.7736012,4.3 L28,11.783155 C27.2281925,12.5284809 26.0856896,12.6532783 25.1898051,12.1683224 L19.1673661,18.6574917 C20.1162471,19.9296731 19.9941932,21.7391354 18.8224155,22.870708 C18.7496237,22.9410022 18.674359,23.0071567 18.5969125,23.0691765 L14.6690943,19.0018017 L8.8648523,24.6068931 L4,27.728882 L7.28986794,22.9759491 L7.28986794,22.9759491 Z" id="Path" fill="#000000"></path>
    </g>
</svg>