<?xml version="1.0" encoding="UTF-8"?>
<svg width="32px" height="32px" viewBox="0 0 32 32" version="1.1" xmlns="http://www.w3.org/2000/svg" xmlns:xlink="http://www.w3.org/1999/xlink">
    <!-- Generator: Sketch 64 (93537) - https://sketch.com -->
    <title>icons/qr</title>
    <desc>Created with Sketch.</desc>
    <g id="icons/qr" stroke="none" stroke-width="1" fill="none" fill-rule="evenodd">
        <path d="M4,4 L12,4 L12,12 L4,12 L4,4 Z M6,6 L6,10 L10,10 L10,6 L6,6 Z M4,20 L12,20 L12,28 L4,28 L4,20 Z M6,22 L6,26 L10,26 L10,22 L6,22 Z M20,4 L28,4 L28,12 L20,12 L20,4 Z M22,6 L22,10 L26,10 L26,6 L22,6 Z M12,12 L14,12 L14,14 L12,14 L12,12 Z M16,12 L18,12 L18,14 L16,14 L16,12 Z M14,10 L16,10 L16,12 L14,12 L14,10 Z M16,8 L18,8 L18,10 L16,10 L16,8 Z M14,6 L16,6 L16,8 L14,8 L14,6 Z M16,4 L18,4 L18,6 L16,6 L16,4 Z M6,14 L8,14 L8,16 L6,16 L6,14 Z M4,16 L6,16 L6,18 L4,18 L4,16 Z M8,16 L10,16 L10,18 L8,18 L8,16 Z M16,20 L18,20 L18,22 L16,22 L16,20 Z M20,20 L22,20 L22,22 L20,22 L20,20 Z M24,20 L26,20 L26,22 L24,22 L24,20 Z M16,24 L18,24 L18,26 L16,26 L16,24 Z M24,24 L26,24 L26,26 L24,26 L24,24 Z M14,26 L16,26 L16,28 L14,28 L14,26 Z M18,26 L20,26 L20,28 L18,28 L18,26 Z M22,26 L24,26 L24,28 L22,28 L22,26 Z M26,26 L28,26 L28,28 L26,28 L26,26 Z M14,22 L16,22 L16,24 L14,24 L14,22 Z M18,22 L20,22 L20,24 L18,24 L18,22 Z M22,22 L24,22 L24,24 L22,24 L22,22 Z M26,22 L28,22 L28,24 L26,24 L26,22 Z M14,18 L16,18 L16,20 L14,20 L14,18 Z M22,18 L24,18 L24,20 L22,20 L22,18 Z M14,14 L16,14 L16,16 L14,16 L14,14 Z M18,14 L20,14 L20,16 L18,16 L18,14 Z M22,14 L24,14 L24,16 L22,16 L22,14 Z M26,14 L28,14 L28,16 L26,16 L26,14 Z M12,16 L14,16 L14,18 L12,18 L12,16 Z M16,16 L18,16 L18,18 L16,18 L16,16 Z M20,16 L22,16 L22,18 L20,18 L20,16 Z M24,16 L26,16 L26,18 L24,18 L24,16 Z M10,14 L12,14 L12,16 L10,16 L10,14 Z" id="Shape" fill="#000000"></path>
    </g>
</svg>