<?xml version="1.0" encoding="UTF-8"?>
<svg width="32px" height="32px" viewBox="0 0 32 32" version="1.1" xmlns="http://www.w3.org/2000/svg" xmlns:xlink="http://www.w3.org/1999/xlink">
    <!-- Generator: Sketch 64 (93537) - https://sketch.com -->
    <title>icons/question</title>
    <desc>Created with Sketch.</desc>
    <g id="icons/question" stroke="none" stroke-width="1" fill="none" fill-rule="evenodd">
        <path d="M16,2 C23.7319865,2 30,8.2680135 30,16 C30,23.7319865 23.7319865,30 16,30 C8.2680135,30 2,23.7319865 2,16 C2,8.2680135 8.2680135,2 16,2 Z M16,4 C9.372583,4 4,9.372583 4,16 C4,22.627417 9.372583,28 16,28 C22.627417,28 28,22.627417 28,16 C28,9.372583 22.627417,4 16,4 Z M16,20.5 C16.8284271,20.5 17.5,21.1715729 17.5,22 C17.5,22.8284271 16.8284271,23.5 16,23.5 C15.1715729,23.5 14.5,22.8284271 14.5,22 C14.5,21.1715729 15.1715729,20.5 16,20.5 Z M16.3684644,9 C18.5628004,9 20.6033277,10.1689453 20.6033277,12.609375 C20.6033277,14.3422852 19.5779371,15.1831055 18.603816,15.9213867 C17.4143629,16.8339844 16.9836988,17.1723633 16.9836988,18.3310547 L16.9836988,18.9155273 L15.0252027,18.9155273 L15.0149488,18.1567383 C14.9739332,16.659668 15.8762769,15.7470703 16.9324293,14.9472656 C17.8860425,14.2294922 18.491023,13.7578125 18.491023,12.7324219 C18.491023,11.3789062 17.4143629,10.8149414 16.2659254,10.8149414 C14.7278394,10.8149414 13.9587964,11.8095703 13.9587964,13.0810547 L12.0003004,13.0810547 C11.9695386,10.0356445 14.3074293,9 16.3684644,9 Z" id="Combined-Shape" fill="#000000" fill-rule="nonzero"></path>
    </g>
</svg>