<?xml version="1.0" encoding="UTF-8"?>
<svg width="32px" height="32px" viewBox="0 0 32 32" version="1.1" xmlns="http://www.w3.org/2000/svg" xmlns:xlink="http://www.w3.org/1999/xlink">
    <!-- Generator: Sketch 64 (93537) - https://sketch.com -->
    <title>icons/radio--selected copy</title>
    <desc>Created with Sketch.</desc>
    <g id="icons/radio--selected-copy" stroke="none" stroke-width="1" fill="none" fill-rule="evenodd">
        <path d="M16,30 C8.2680135,30 2,23.7319865 2,16 C2,8.2680135 8.2680135,2 16,2 C23.7319865,2 30,8.2680135 30,16 C30,23.7319865 23.7319865,30 16,30 Z M16,28 C22.627417,28 28,22.627417 28,16 C28,9.372583 22.627417,4 16,4 C9.372583,4 4,9.372583 4,16 C4,22.627417 9.372583,28 16,28 Z M16,6 C21.5228475,6 26,10.4771525 26,16 C26,21.5228475 21.5228475,26 16,26 C10.4771525,26 6,21.5228475 6,16 C6,10.4771525 10.4771525,6 16,6 Z M16,8 C11.581722,8 8,11.581722 8,16 C8,20.418278 11.581722,24 16,24 C20.418278,24 24,20.418278 24,16 C24,11.581722 20.418278,8 16,8 Z M16,10 C19.3137085,10 22,12.6862915 22,16 C22,19.3137085 19.3137085,22 16,22 C12.6862915,22 10,19.3137085 10,16 C10,12.6862915 12.6862915,10 16,10 Z" id="Shape" fill="#000000"></path>
    </g>
</svg>