<?xml version="1.0" encoding="UTF-8"?>
<svg width="32px" height="32px" viewBox="0 0 32 32" version="1.1" xmlns="http://www.w3.org/2000/svg" xmlns:xlink="http://www.w3.org/1999/xlink">
    <!-- Generator: Sketch 64 (93537) - https://sketch.com -->
    <title>icons/unlock</title>
    <desc>Created with Sketch.</desc>
    <g id="icons/unlock" stroke="none" stroke-width="1" fill="none" fill-rule="evenodd">
        <path d="M22,11 L22,10 C22,6.6862915 19.3137085,4 16,4 C12.6862915,4 10,6.6862915 10,10 L10,16 L26,16 L26,30 L6,30 L6,16 L8,16 L8,10 C8,5.581722 11.581722,2 16,2 C20.3349143,2 23.8645429,5.44783777 23.9961932,9.75082067 L24,10 L24,11 L22,11 Z M16,21 C15.4477153,21 15,21.4477153 15,22 L15,24 C15,24.5522847 15.4477153,25 16,25 C16.5522847,25 17,24.5522847 17,24 L17,22 C17,21.4477153 16.5522847,21 16,21 Z" id="Shape" fill="#000000"></path>
    </g>
</svg>