<?xml version="1.0" encoding="UTF-8"?>
<svg width="32px" height="32px" viewBox="0 0 32 32" version="1.1" xmlns="http://www.w3.org/2000/svg" xmlns:xlink="http://www.w3.org/1999/xlink">
    <!-- Generator: Sketch 64 (93537) - https://sketch.com -->
    <title>icons/user</title>
    <desc>Created with Sketch.</desc>
    <g id="icons/user" stroke="none" stroke-width="1" fill="none" fill-rule="evenodd">
        <path d="M12.9935828,19.4158821 C10.0651523,18.2275128 8,15.3549275 8,12 C8,7.581722 11.581722,4 16,4 C20.418278,4 24,7.581722 24,12 C24,15.3549275 21.9348477,18.2275128 19.0064172,19.4158821 C23.3111216,20.6362501 26.5417067,24.4119611 26.955157,29 L24.9450712,29 C24.4476269,24.5000495 20.6325537,21 16,21 C11.3674463,21 7.55237307,24.5000495 7.05492878,29 L5.04484302,29 C5.45829334,24.4119611 8.68887836,20.6362501 12.9935828,19.4158821 L12.9935828,19.4158821 Z M16,18 C19.3137085,18 22,15.3137085 22,12 C22,8.6862915 19.3137085,6 16,6 C12.6862915,6 10,8.6862915 10,12 C10,15.3137085 12.6862915,18 16,18 Z" id="Shape" fill="#000000"></path>
    </g>
</svg>