<?xml version="1.0" encoding="UTF-8"?>
<svg width="32px" height="32px" viewBox="0 0 32 32" version="1.1" xmlns="http://www.w3.org/2000/svg" xmlns:xlink="http://www.w3.org/1999/xlink">
    <!-- Generator: Sketch 64 (93537) - https://sketch.com -->
    <title>icons/users</title>
    <desc>Created with Sketch.</desc>
    <g id="icons/users" stroke="none" stroke-width="1" fill="none" fill-rule="evenodd">
        <path d="M14.8889168,3.78435541 C16.3560334,2.07953118 18.5295262,1 20.955157,1 C25.373435,1 28.955157,4.581722 28.955157,9 C28.955157,12.3549275 26.8900047,15.2275128 23.9615741,16.4158821 C28.2662786,17.6362501 31.4968636,21.4119611 31.910314,26 L29.9002282,26 C29.4027839,21.5000495 25.5877106,18 20.955157,18 C20.4955862,18 20.0440607,18.0344459 19.6030215,18.1008969 C20.1645389,17.1558965 20.5747799,16.1104837 20.800361,14.998042 C20.8518014,14.9993447 20.9034027,15 20.955157,15 C24.2688655,15 26.955157,12.3137085 26.955157,9 C26.955157,5.6862915 24.2688655,3 20.955157,3 C19.2881604,3 17.7799443,3.67982001 16.6926232,4.77734552 C16.1305732,4.38749806 15.5266326,4.0537962 14.8889168,3.78435541 Z M7.94873982,20.4158821 C5.02030924,19.2275128 2.95515698,16.3549275 2.95515698,13 C2.95515698,8.581722 6.53687899,5 10.955157,5 C15.373435,5 18.955157,8.581722 18.955157,13 C18.955157,16.3549275 16.8900047,19.2275128 13.9615741,20.4158821 C18.2662786,21.6362501 21.4968636,25.4119611 21.910314,30 L19.9002282,30 C19.4027839,25.5000495 15.5877106,22 10.955157,22 C6.32260333,22 2.50753005,25.5000495 2.01008576,30 L2.46913601e-13,30 C0.413450328,25.4119611 3.64403534,21.6362501 7.94873982,20.4158821 L7.94873982,20.4158821 Z M10.955157,19 C14.2688655,19 16.955157,16.3137085 16.955157,13 C16.955157,9.6862915 14.2688655,7 10.955157,7 C7.64144849,7 4.95515698,9.6862915 4.95515698,13 C4.95515698,16.3137085 7.64144849,19 10.955157,19 Z" id="Shape" fill="#000000"></path>
    </g>
</svg>