<?xml version="1.0" encoding="UTF-8"?>
<svg width="32px" height="32px" viewBox="0 0 32 32" version="1.1" xmlns="http://www.w3.org/2000/svg" xmlns:xlink="http://www.w3.org/1999/xlink">
    <!-- Generator: Sketch 64 (93537) - https://sketch.com -->
    <title>icons/wifi</title>
    <desc>Created with Sketch.</desc>
    <g id="icons/wifi" stroke="none" stroke-width="1" fill="none" fill-rule="evenodd">
        <path d="M13.1702814,21.1715729 C14.7323785,19.6094757 17.2650385,19.6094757 18.8271356,21.1715729 L15.9987085,24 L13.1702814,21.1715729 L13.1702814,21.1715729 Z M20.2413492,19.7573593 C17.8982034,17.4142136 14.0992136,17.4142136 11.7560678,19.7573593 L10.3418542,18.3431458 C13.4660486,15.2189514 18.5313684,15.2189514 21.6555627,18.3431458 L20.2413492,19.7573593 Z M23.0697763,16.9289322 C19.1645334,13.0236893 12.8328836,13.0236893 8.92764069,16.9289322 L7.51342712,15.5147186 C12.1997186,10.8284271 19.7976984,10.8284271 24.4839899,15.5147186 L23.0697763,16.9289322 Z M25.8982034,14.1005051 C20.4308634,8.63316498 11.5665536,8.63316498 6.09921356,14.1005051 L4.685,12.6862915 C10.9333887,6.43790283 21.0640283,6.43790283 27.312417,12.6862915 L25.8982034,14.1005051 Z" id="Mask" fill="#000000"></path>
    </g>
</svg>